<svg width="24" height="24" viewBox="0 0 24 24" fill="none" xmlns="http://www.w3.org/2000/svg">
<g clip-path="url(#clip0_328_3806)">
<rect width="24" height="24" rx="12" fill="white"/>
<path d="M11.9942 24C18.5713 24 24 18.5687 24 12C24 5.43133 18.5597 0 11.9826 0C5.41711 0 0 5.43133 0 12C0 18.5687 5.42871 24 11.9942 24ZM11.9826 13.8917C9.70904 13.8801 7.94587 11.9768 7.94587 9.45841C7.92267 7.09091 9.72064 5.11799 11.9826 5.11799C14.2446 5.11799 16.0193 7.09091 16.0193 9.45841C16.0193 11.9768 14.2562 13.9149 11.9826 13.8917ZM11.9826 22.0155C9.38424 22.0155 6.62349 20.9362 4.87192 19.0561C6.2059 17.06 8.85065 15.8994 11.9826 15.8994C15.0797 15.8994 17.7477 17.0368 19.0933 19.0561C17.3417 20.9362 14.581 22.0155 11.9826 22.0155Z" fill="#AEAFB4"/>
</g>
<defs>
<clipPath id="clip0_328_3806">
<rect width="24" height="24" rx="12" fill="white"/>
</clipPath>
</defs>
</svg>
